<?xml version="1.0" encoding="UTF-8" standalone="no"?>
<!-- Created with Inkscape (http://www.inkscape.org/) -->

<svg
   xmlns:dc="http://purl.org/dc/elements/1.1/"
   xmlns:cc="http://creativecommons.org/ns#"
   xmlns:rdf="http://www.w3.org/1999/02/22-rdf-syntax-ns#"
   xmlns:svg="http://www.w3.org/2000/svg"
   xmlns="http://www.w3.org/2000/svg"
   xmlns:sodipodi="http://sodipodi.sourceforge.net/DTD/sodipodi-0.dtd"
   xmlns:inkscape="http://www.inkscape.org/namespaces/inkscape"
   width="210mm"
   height="297mm"
   viewBox="0 0 744.09448819 1052.3622047"
   id="svg2"
   version="1.1"
   inkscape:version="0.91 r13725"
   sodipodi:docname="drawing.svg">
  <defs
     id="defs4" />
  <sodipodi:namedview
     id="base"
     pagecolor="#ffffff"
     bordercolor="#666666"
     borderopacity="1.0"
     inkscape:pageopacity="0.0"
     inkscape:pageshadow="2"
     inkscape:zoom="0.35"
     inkscape:cx="375"
     inkscape:cy="520"
     inkscape:document-units="px"
     inkscape:current-layer="layer1"
     showgrid="false"
     inkscape:window-width="1436"
     inkscape:window-height="855"
     inkscape:window-x="4"
     inkscape:window-y="1"
     inkscape:window-maximized="1" />
  <metadata
     id="metadata7">
    <rdf:RDF>
      <cc:Work
         rdf:about="">
        <dc:format>image/svg+xml</dc:format>
        <dc:type
           rdf:resource="http://purl.org/dc/dcmitype/StillImage" />
        <dc:title></dc:title>
      </cc:Work>
    </rdf:RDF>
  </metadata>
  <g
     inkscape:label="Layer 1"
     inkscape:groupmode="layer"
     id="layer1">
    <path
       style="fill:#ff0000;fill-opacity:1;fill-rule:nonzero;stroke:none;stroke-width:1px;stroke-linecap:butt;stroke-linejoin:miter;stroke-opacity:1"
       id="path3336"
       d="m 103.98595,399.24345 c 0.27437,-10.9912 0.29924,-21.98921 0.27392,-32.9835 0.38031,-9.47227 0.90848,-19.06222 3.5743,-28.22529 2.01627,-6.93043 3.3552,-9.13772 6.41251,-15.70157 9.73204,-18.17983 24.08272,-33.25009 38.71534,-47.54957 16.56953,-14.98606 33.57292,-29.55761 52.55455,-41.40539 19.13989,-11.34424 37.19111,-24.24839 58.93088,-29.13445 9.07205,-2.03897 18.33203,-2.59079 27.57329,-3.28681 16.91445,-0.96225 33.33454,2.29864 48.14465,10.49092 10.35421,7.04186 16.88423,17.82921 22.3119,28.8508 4.41956,9.13899 4.4693,19.28005 4.81179,29.20801 0.90321,11.87577 -1.50533,20.86185 -6.62773,31.48891 -6.59028,12.91489 -15.77089,24.16502 -24.90394,35.32529 -12.37206,12.65803 -24.51207,25.53221 -36.60545,38.4582 -12.81351,13.12487 -24.18694,27.50974 -34.67295,42.53025 -12.47083,17.58535 -23.47853,36.11878 -34.14613,54.83188 -9.91371,16.19927 -15.23371,34.0424 -19.62191,52.3314 -3.37674,17.03344 -6.57591,34.44413 -4.79412,51.83241 2.18522,13.29336 8.99333,24.92492 16.07949,36.1446 7.67459,11.64397 17.29581,21.69089 27.80005,30.78278 7.87671,7.28732 16.38582,12.54591 26.77696,15.20295 6.79425,0.96542 13.8309,2.0945 20.7261,1.71665 4.59933,-0.25203 6.85807,-1.09041 11.25659,-2.25873 1.76439,-0.78561 3.58304,-1.45921 5.29319,-2.35681 1.81211,-0.95112 7.04359,-4.16933 5.25288,-3.17849 -10.09553,5.58607 -19.88179,11.74465 -30.17068,16.96602 -2.14391,1.08799 3.84843,-2.89418 5.62772,-4.51103 4.29031,-3.89863 7.93441,-8.33158 11.74354,-12.68011 8.58274,-10.19756 17.16537,-20.55353 24.20991,-31.90713 5.02148,-8.09304 5.84789,-10.46883 9.95548,-19.1201 7.84948,-17.5115 11.77069,-36.36162 15.8651,-55.00726 4.60983,-20.47808 10.48385,-40.63183 15.48502,-61.01764 4.1847,-16.19243 6.82631,-32.74317 12.1322,-48.63863 3.10611,-9.30533 5.2046,-13.89573 8.96779,-22.95101 9.06263,-21.85302 21.41194,-41.7835 36.92227,-59.57984 2.68067,-2.45176 5.21639,-5.07207 8.04201,-7.35527 2.67145,-2.15862 5.4507,-4.21169 8.41653,-5.9438 20.19008,-11.79147 38.6813,-25.9507 61.91165,-29.51084 3.07761,-0.47165 6.20239,-0.55401 9.30358,-0.83101 15.31485,-0.59176 30.08541,3.33424 41.43418,14.03013 2.18384,2.05821 4.04517,4.43374 6.06775,6.65061 12.88504,16.21131 17.21603,36.38096 19.88566,56.42505 1.55774,13.62895 2.38516,27.29252 -0.0506,40.86766 -1.32413,7.37968 -2.46686,10.50043 -4.58281,17.57743 -4.99288,15.86083 -11.59735,31.10771 -18.59597,46.16384 -6.432,14.84785 -15.51229,28.24268 -24.22055,41.79962 -10.23942,14.30771 -19.52727,29.07444 -27.29728,44.85519 -6.54704,13.20682 -9.404,27.60467 -10.87979,42.14655 -1.46449,10.48891 -0.13532,20.4646 3.08523,30.45536 3.31992,9.50672 9.96319,16.74716 17.62556,22.98855 7.78913,5.52441 16.89069,7.45822 26.20526,8.37187 11.56077,0.97699 17.267,1.18162 27.24339,-5.30474 -56.22847,33.38787 -31.45545,19.9628 -21.1338,8.05025 5.08076,-5.86389 9.14575,-12.48449 13.2595,-19.02976 8.65209,-14.68817 15.01947,-30.52489 20.76394,-46.52816 5.67952,-15.07967 7.52363,-31.16112 10.29876,-46.93252 1.7017,-10.73321 4.44658,-21.21401 8.18012,-31.40604 1.71931,-5.02423 4.12314,-9.68141 7.14843,-14.02109 0,0 38.87277,-16.52251 38.87277,-16.52251 l 0,0 c -3.62219,3.62205 -6.18722,7.96822 -7.89617,12.82296 -3.91974,10.05532 -7.1509,20.3031 -8.98324,30.97722 -3.18783,15.8778 -4.59394,32.21795 -10.07387,47.54386 -5.74529,16.21438 -12.25763,32.19129 -20.446,47.34064 -18.93915,31.25552 -23.78281,32.85313 -62.58188,54.00249 -10.53079,4.92858 -17.67732,4.51267 -28.98735,3.31399 -9.87006,-1.46268 -19.33825,-4.28615 -27.38429,-10.45498 -8.16904,-6.87179 -15.19774,-14.77212 -18.77221,-25.03255 -3.54742,-10.47666 -5.52812,-20.97996 -3.81296,-32.06523 1.56378,-14.96554 4.19521,-29.92878 10.66456,-43.65367 1.30471,-2.71431 6.12697,-12.84785 7.58683,-15.47903 5.7698,-10.39918 12.98345,-19.91605 19.52581,-29.81796 8.57314,-13.4802 17.75503,-26.66152 24.35951,-41.26985 7.03949,-14.91962 13.79523,-30.00542 18.91799,-45.71083 2.89657,-8.70578 5.63674,-17.35609 6.62072,-26.53699 1.08921,-10.16265 -0.0365,-20.32101 -0.89178,-30.44682 -2.52102,-19.24448 -6.28409,-38.61073 -18.92659,-54.05288 -1.91624,-2.02363 -3.67079,-4.21369 -5.74873,-6.07091 -10.98028,-9.81397 -25.19217,-12.54899 -39.51856,-11.46787 -8.2087,1.13578 -9.81355,0.99625 -17.7175,3.52317 -2.93955,0.93978 -11.16793,5.073 -8.65991,3.27466 8.35013,-5.98735 17.53022,-10.72419 26.3651,-15.96994 2.94958,-1.75132 -5.93745,3.4616 -8.70714,5.48545 -2.90513,2.12281 -5.51924,4.61762 -8.27885,6.92643 -2.52151,2.7132 -5.17456,5.30984 -7.56453,8.1396 -12.68599,15.02042 -21.90663,32.51776 -30.09633,50.27806 -4.77994,11.20608 -9.56486,22.401 -12.84889,34.16508 -1.43847,5.15291 -4.39327,19.06057 -5.60362,24.25524 -0.98277,4.21789 -2.03714,8.41879 -3.05571,12.62818 -4.71963,20.23111 -10.03237,40.30602 -14.69539,60.54711 -4.12265,18.98064 -8.63482,38.01754 -15.98176,56.04488 -3.58746,8.04157 -5.11146,12.08114 -9.5737,19.64569 -6.79347,11.51652 -15.37315,21.96684 -23.81872,32.27685 -1.83037,2.19736 -8.98243,10.88422 -11.17782,13.14634 -15.59967,16.07379 -36.97209,26.23932 -57.78309,33.98217 -11.09075,1.99306 -22.38196,1.6766 -33.35234,-1.05749 -10.55493,-3.41883 -19.48822,-9.21194 -27.48348,-16.92942 -10.64938,-9.50384 -20.47005,-19.88002 -28.39999,-31.80789 -7.44614,-11.73971 -14.49743,-23.9567 -16.91021,-37.84489 -0.29553,-2.52566 -0.77475,-5.03654 -0.88661,-7.57697 -0.67461,-15.32188 3.21482,-30.66612 5.4511,-45.69371 4.26929,-19.29407 8.96963,-36.24371 19.19033,-53.45755 10.75186,-18.71246 21.63923,-37.36706 33.94241,-55.11798 10.31738,-15.14984 21.39162,-29.83094 34.18716,-42.99834 12.09815,-12.81283 23.94372,-25.87462 36.58941,-38.15646 9.05285,-10.9297 18.27781,-21.88753 25.08355,-34.41065 5.16546,-9.6412 8.06407,-18.42674 7.32246,-29.51392 -0.20346,-9.3511 -0.26406,-18.90966 -4.00877,-27.65705 -4.7871,-10.40194 -10.86048,-20.41345 -20.70498,-26.73529 -14.40707,-7.51353 -30.13787,-10.14582 -46.34806,-8.83504 -9.19097,0.83508 -18.29123,1.69025 -27.24218,4.08173 -14.10883,3.76955 -42.4925,19.63728 12.18531,-10.91793 -19.45698,11.2602 -36.5116,25.8591 -53.31142,40.71565 -14.54735,13.79022 -28.51846,28.5921 -38.71527,45.97417 -7.32289,14.47734 -10.34721,25.75229 -10.4119,42.04932 -0.025,10.90122 -0.003,21.80633 0.27392,32.70436 0,0 -37.74239,19.23071 -37.74239,19.23071 z"
       inkscape:connector-curvature="0" />
  </g>
</svg>
