<svg xmlns="http://www.w3.org/2000/svg" width="500" height="500" viewBox="0 0 500 500">
  <defs>
    <style>
      .cls-1 {
        fill-rule: evenodd;
      }
    </style>
  </defs>
  <path class="cls-1" d="M418.265,82.762L308.03,199.7l-58,51.291v0l44.331-24.077,96.159-41.426-93.552,47.024L250.03,250.992v0l77.288-4.739L487.948,251l-160.63,4.741L250.032,251l48.377,14.32,97.292,38.7-99.409-32.892L250.031,251h0l58,51.308L418.265,419.238,301.33,309.011,250.03,251h0l24.084,44.339L315.54,391.5l-47.033-93.561L250.03,251v0h0l0,0v0h0v0l-48.378-14.317-97.292-38.7,99.4,32.892,46.27,20.127v0L192.015,199.7,81.788,82.762,198.723,193l51.3,57.991v0l-24.085-44.323L184.505,110.5l47.041,93.553,18.479,46.933,0-.009-4.753-77.266,4.747-160.637,4.748,160.637-4.738,77.251,14.311-48.341,38.7-97.293-32.892,99.4-20.122,46.245v0.013L301.33,193ZM250.025,250.993h0Zm0,0h0v0h0Zm0,0h0v0h0v0Zm0,0,0,0v0l0,0v0Zm0-.009,0,0.005v0l0,0V250.98Zm0,0.009h0v0h0v0Zm0,0h0v0Zm0,0h0v0h0Zm0,0,0,0h0l0,0h0Zm-0.007,237.934-4.747-160.637L250.03,251l4.74,77.289ZM197,396.675l32.892-99.41L250.022,251,235.7,299.382ZM81.788,419.238L192.015,302.3,250.022,251l-51.3,58.016Zm27.736-102.717,93.544-47.04L250.022,251l-44.34,24.092ZM12.1,251l160.638-4.747L250.022,251l-77.287,4.749Z"/>
</svg>
